<?xml version="1.0" encoding="utf-8"?>
<!-- Generator: Adobe Illustrator 24.3.0, SVG Export Plug-In . SVG Version: 6.00 Build 0)  -->
<svg version="1.1" id="Layer_1" xmlns="http://www.w3.org/2000/svg" xmlns:xlink="http://www.w3.org/1999/xlink" x="0px" y="0px"
	 viewBox="0 0 553.7 121.1" style="enable-background:new 0 0 553.7 121.1;" xml:space="preserve">
<style type="text/css">
	.st0{fill:#FEFEFE;}
	.st1{fill:#060E4F;}
	.st2{fill:#FDD303;}
	.st3{fill:#F58F00;}
	.st4{fill:#FDFDFD;}
	.st5{fill:#F58F01;}
	.st6{fill:#FCD304;}
	.st7{fill:#FCD403;}
	.st8{fill:#121956;}
	.st9{fill:#070E4F;}
	.st10{fill:#0A1050;}
	.st11{fill:#F40F11;}
	.st12{fill:#A21313;}
	.st13{fill:#F6A6A5;}
	.st14{fill:#A21314;}
	.st15{fill:#F4A5A4;}
	.st16{fill:#A21414;}
	.st17{fill:#F5A6A5;}
	.st18{fill:#FFFFFF;}
</style>
<path class="st0" d="M192.4,10.1c-2.4,4.3-5.1,8.4-7.4,12.8c0.1,1.3-1,2.1-1.5,3.2c-1.6,3.1-3.5,6-5.2,9c-2.2,3.9-4.5,7.9-6.8,11.8
	c-0.4,0.8-0.9,1.5-1.3,2.3c-0.2,0.4-0.4,0.7-0.6,1.1c-3.7,6.4-7.5,12.8-11.2,19.3c-1.3,2.2-2.6,4.5-3.9,6.7c-0.5,0.8-0.5,1.8,0,2.5
	c2.1,3.6,3.5,7.6,4.2,11.7c0.2,2,0.2,4.1,0.1,6.1c-1.4,8.7-7.1,13.7-14.6,17.2c-5.8,2.6-11.9,4.3-18.2,5.2c-1.6,0.2-3.3,0.3-4.9,0.8
	c-1.5,0.3-3,0.3-4.4,0.6c-0.9,0.2-1.9-0.3-2.8,0.1c-0.3,0.1-0.6,0.1-0.8,0.1c-1.1,0.1-2.3-0.3-3.4,0.1c-0.5,0.1-1,0-1.6,0.2
	c-1.5,0-3.1-0.1-4.6-0.1c-0.5,0-0.9,0.1-1.3,0.2c-0.9,0.1-1.8,0-2.7,0.1s-2.1,0-3.1,0c-0.3,0-0.6-0.1-0.9-0.1
	c-3.3,0.2-6.7-0.2-10-0.2c-6.7-0.1-13.4-0.8-20-2c-5.6-0.9-11.2-2.6-16.4-4.9c-5.5-2.5-10.3-6-13-11.7c-2.3-4.7-2.2-9.6-1-14.5
	c0.8-3.1,2-6,3.6-8.8c0.5-0.8,0.5-1.8,0-2.5C30.8,62.8,23,49.3,15.2,35.8c-1.5-2.6-3.1-5.1-4.5-7.8c-1.6-2.7-3-5.5-4.8-8.1
	c-2-3.1-3.6-6.4-5.6-9.6c-0.1-0.5-0.6-1-0.3-1.6C3,10,5.7,11.7,8.5,13.2c1.2,0.6,2.3,1.3,3.5,1.9c0.7-0.1,1.3,0.1,1.8,0.6
	c2.5,1.6,5.2,3,7.8,4.5c3.1,1.8,6.2,3.5,9.3,5.3c4.1,2.2,8,4.8,12,7.2c5.3,3.4,10.4,6.8,15.6,10.3c1.2,0.8,1.2,0.8,1.5-0.6
	c0.7-3.8,1.8-7.6,2.6-11.5c0.1-0.4,0.1-1,0.6-1.1s0.9,0.3,1.2,0.7c2.5,3,5,5.9,7.6,8.8c1.3,1.5,3,2.5,4.2,4.1
	c-1.7-2.2-3.5-4.2-5.6-6.1c-1.3-1.1-1.3-1.6-0.2-3.1c8.3-11,16.6-22,24.8-33c0.2-0.2,0.3-0.4,0.5-0.6C96,0,96.6-0.2,97.1,0.1
	c0.2,0.1,0.3,0.2,0.4,0.4c0.4,0.5,0.7,0.9,1.1,1.4c2.9,3.9,5.8,7.7,8.8,11.6c2.6,3.4,5.2,6.8,7.7,10.2c2.7,3.6,5.4,7.1,8,10.7
	c0.8,1.1,0.8,1.6-0.3,2.6c-2.1,1.8-3.9,3.8-5.6,6c4-3.6,7.7-7.5,11-11.7c0.6-0.7,1-1.7,2.2-1.5c0.8,2.6,1.5,5.2,2,7.9
	c0.4,1.6,0.7,3.2,1,4.9c0.2,1.2,0.3,1.2,1.4,0.5c2.8-1.8,5.6-3.7,8.3-5.5c2.2-1.5,4.6-2.9,6.8-4.4c2.9-1.7,5.8-3.5,8.6-5.3
	c1.3-0.8,2.6-1.4,3.9-2.3c2.5-1.4,5.1-2.8,7.6-4.3c3.1-1.5,5.9-3.4,8.9-5c2.3-1.3,4.6-2.6,6.9-3.9c0.5-0.3,1-0.5,1.6-0.6l5.9-3.2
	L192.4,10.1z"/>
<path class="st1" d="M12.2,20.7c17.4,9.2,34.1,19.6,50.2,31c0.9-1.9,1.6-3.9,1.9-6c0.4-2,0.8-4.1,1.2-6.2c1.5,1.5,2.8,2.9,4.1,4.3
	c1.3,1.3,2.6,2.5,4.1,3.7c1.5,1.2,3.3,1.8,5.2,1.8c1.7,0.1,3.2-1.1,3.3-2.9c0-0.2,0-0.4,0-0.7c-0.1-1.5-0.6-3-1.4-4.2
	c-1.3-2.1-2.8-4-4.5-5.6c-0.5-0.5-0.5-0.8-0.1-1.4c6.6-8.7,13.1-17.4,19.6-26.1c0.6-0.8,0.8-0.6,1.4,0c6.5,8.7,13,17.3,19.6,26
	c0.5,0.6,0.5,1-0.1,1.5c-2,1.9-3.7,4-4.9,6.4c-0.6,1.1-0.9,2.3-0.9,3.5c-0.2,1.7,0.9,3.3,2.6,3.5c0.2,0,0.4,0,0.6,0
	c2,0,3.9-0.7,5.4-1.9c2.9-2.4,5.6-5,8-7.8c1.1,4.1,1.2,8.3,3.2,12.2c16.1-11.4,32.8-21.7,50.2-31l-5.8,10.1
	c-8.8,15.3-17.7,30.6-26.6,45.9c-0.4,0.5-0.4,1.3,0,1.8c2.4,3.9,4.5,8,5.2,12.6c1.1,5.5-1.1,11.1-5.5,14.4
	c-4.3,3.6-9.4,5.4-14.8,6.8c-7.3,1.8-14.7,2.9-22.2,3.2c-10.8,0.7-21.7,0.6-32.5-0.2c-8.6-0.7-17.2-1.9-25.3-5
	c-2.6-1-5.1-2.2-7.3-3.9c-6.1-4.4-8.2-10.4-6.2-17.6c1-3.6,2.6-7,4.7-10.2c0.5-0.6,0.5-1.5,0-2.1C34,58.4,23.6,40.3,13.1,22.1
	C12.8,21.7,12.6,21.3,12.2,20.7z"/>
<path class="st0" d="M102,120.5h4.3v0.4c-2.3-0.3-4.7,0.3-7-0.3C100.2,120.5,101.1,120.5,102,120.5z"/>
<path class="st0" d="M109.6,120.3l2,0.1c-1.1,0.1-2.3,0.4-3.4,0L109.6,120.3z"/>
<path class="st0" d="M113.8,120.1l1.5,0.1c-0.7,0.1-1.4,0.4-2.1,0L113.8,120.1z"/>
<path class="st2" d="M108.1,81.8c-2.8-0.3-5.6-0.6-8.3-1c-3.7-0.5-7.3,0.2-11,0.6c-1.2,0.1-2.5,0.3-3.7,0.4c-2.3,0.2-4.7,0.2-7-0.1
	c-4.3-0.4-8.6-0.1-12.9-0.2c-0.5,0-1.1,0-1.6-0.1c-0.6-0.2-0.8-0.5-0.3-1.1c0.1-0.1,0.1-0.1,0.2-0.2c2.5-1.5,4.9-3.2,7.2-5.1
	c0.6-0.1,1.3,0.2,1.7,0.7c0.7,0.7,1.5,1.3,2.3,1.9c0.3-0.6,0.5-1.2,0.5-1.9c0.4-2.5,0.7-4.9,1.1-7.4c0-0.6,0.2-1.1,0.5-1.7
	c1-1,2.4-1.5,3.5-2.4c2.3-1.9,4-4.4,5-7.2c1-2.6,1.2-5.4,1.9-8c1.9-5.2,0.2-9.6-3.2-13.7c-0.2-0.3-0.9-0.5-0.6-1
	c1.5-1.6,3.2-3,5-4.1c2.3-1.6,4.5-3.4,6.9-5c1.3-0.9,1.9-0.6,1.9,0.9c0,6.1,0,12.2,0,18.4c0,0.2,0,0.4-0.1,0.6
	c-1,1.8-2.2,3.5-3.5,5.1c-1.4,2-2.8,4-4.4,5.9c-0.6,0.7-0.7,1.6-0.2,2.4c2.4,4.2,4.7,8.5,7.1,12.8c0.6,1.1,0.7,1.1,1.3,0
	c2.4-4.3,4.8-8.6,7.2-12.9c0.4-0.6,0.5-1.3,0.2-1.9c-1.2-2.8-1.9-5.7-2.2-8.6c-0.4-5.2,1-9.7,5.7-12.8c0.5-0.3,1-0.8,1.7-0.4
	c-1.4,1.7-2.6,3.5-3.6,5.5c-1.1,2.8-1.2,5.9-0.1,8.7c0.7,2.5,0.8,5.1,1.7,7.5c0.9,2.8,2.6,5.2,4.7,7.2c0.3,0.2,0.5,0.5,0.8,0.8
	c0.8,2.2,0.8,4.5,1.2,6.7c0.2,0.8,0.2,1.7,0.4,2.5s0.4,0.8,1,0.4c0.8-0.7,1.6-1.4,2.4-2c0.4-0.4,1-0.7,1.6-0.6
	c0.4,0.2,0.7,0.5,0.9,0.8c2.1,2.9,4.8,5.4,8,7.2c0.6,0.3,1.5,0.6,1.3,1.3c-0.2,0.8-1.2,0.6-1.8,0.6c-2.8,0-5.7,0.1-8.5,0
	c-3-0.1-6,0.4-9.1,0.5C109.8,82.1,108.9,81.9,108.1,81.8z"/>
<path class="st3" d="M113.1,64.7c-5.1-4-6.7-9.5-6.9-15.6c0.7,1.3,1.6,2.4,2.7,3.3c1.7,1.5,3.8,2.3,6,2.3c1.8,0.1,3.6,0,5.3-0.3
	c0.8-0.3,1.7,0.2,2,1c0,0,0,0.1,0,0.1c2,5,7.1,6.9,11.6,6.3c4.9-0.6,8.6-3.2,11.5-7c0.1-0.1,0.2-0.3,0.2-0.5
	c0.2-0.4,0.7-0.7,0.7-1.2c0.5-0.8,1.2-1.6,2-2.2c4.7-4.3,9.4-8.6,14.1-12.9c0.9-0.8,2-1.5,2.9-2.4c0.2-0.3,0.6-0.4,0.9-0.3
	c-1.6,2.7-3.1,5.3-4.5,7.9c-7.6,13.2-15.2,26.4-22.9,39.6c-0.3,0.4-0.3,1,0.1,1.4c0.8,0.9,1.5,2,1.9,3.2c0.7,1.4,0.4,3.1-0.7,4.3
	c-1.6,2-3.9,3.5-6.4,4.2c0.9-3.8-1.4-5.9-4.1-7.7c-4.2-2.7-9.1-4-13.9-5c-2.5-0.6-5.1-1-7.6-1.5c7.3-0.8,14.7-1.1,22-0.9
	c-1.2-1.1-2.6-1.6-3.7-2.4c-2.6-1.8-4.8-4-6.5-6.6c-0.1-0.1-0.2-0.2-0.4-0.3c-0.1-0.7,0.4-1,0.8-1.3c0.8-0.7,1.6-1.4,2.5-2.1
	c0.6-0.4,0.8-1.2,0.6-1.9c-0.7-2.3-1.3-4.6-1.9-6.9c-0.2-0.8-0.6-0.9-1.2-0.5c-2,1.3-4,2.7-6.1,3.9
	C113.5,63.5,113.6,64.3,113.1,64.7z"/>
<path class="st3" d="M70.9,75.2c-2.3,2.2-4.9,4.1-7.7,5.6c0.3,0.2,0.6,0.3,1,0.3c2.6,0,5.2,0.1,7.7,0c4.4-0.1,8.8,0.5,13.2,0.8
	c-4.2,0.7-8.3,1.6-12.4,2.7c-2.7,0.7-5.3,1.7-7.8,3c-1,0.5-1.9,1.2-2.8,1.9c-2,1.7-3.4,3.7-2.5,6.7c-2.6-0.7-5-2.3-6.6-4.4
	c-1.1-1.5-1.1-3.5-0.1-5c0-0.7,0.3-1.4,0.8-1.9c0.7-0.6,0.8-1.7,0.1-2.4c0,0,0,0,0,0c-0.5-0.7-0.8-1.5-1-2.3
	c-3.4-5.9-6.8-11.8-10.2-17.7c-4.9-8.6-9.9-17.2-14.9-25.9c-0.2-0.3-0.3-0.6-0.6-1c0.5,0.1,1,0.4,1.4,0.8c1.3,1.3,2.8,2.5,4.2,3.7
	c4.5,4.1,9,8.2,13.5,12.4c0.4,0.2,0.7,0.6,0.8,1c0,0.5,0.5,0.8,0.7,1.2c2.2,3.6,5.7,6.2,9.8,7.1c2.9,0.8,5.9,0.6,8.6-0.7
	c2.1-1,3.8-2.8,4.7-5c0.8-1.6,0.8-1.7,2.7-1.4c3.6,0.6,7.1,0.5,10.3-1.5c0.2-0.2,0.5-0.3,0.6-0.6c1.1-0.9,2-2,2.7-3.3
	c-0.2,7.1-2.5,13.2-9,17c-0.4,0.2-0.8,0.4-1.2,0.6c-2.4-1.3-4.6-3-6.9-4.4c-1.3-0.8-1.4-0.8-1.8,0.7c-0.6,2.1-1.1,4.2-1.7,6.2
	C66,70,66.3,70.8,67,71.3c1,0.8,2,1.7,2.9,2.5C70.4,74.2,70.9,74.5,70.9,75.2z"/>
<path class="st4" d="M96.6,45.4V24.8l-13.4,9.7l12.3-16.4c0.2-0.2,0.3-0.4,0.4-0.6c0.4-0.7,0.7-0.8,1.3,0c4.1,5.5,8.2,11,12.4,16.5
	c0.2,0.3,0.8,0.5,0.3,1c-4.7,2.2-6.8,6.1-7,11.1c0,3.3,0.6,6.6,1.8,9.7c0.2,0.4,0.3,0.9,0.4,1.3c-0.6,0-0.8-0.5-1.1-0.9
	c-2.4-3.1-4.6-6.3-7-9.5C96.7,46.3,96.6,45.9,96.6,45.4z"/>
<path class="st5" d="M117.8,96.2l-4.6,2.1l0.1,0.2l15.6-0.8c-10.1,2.5-20.4,3.9-30.8,4.1c-11.4,0.1-22.7-1.3-33.8-4.1l7.8,0.4
	c2.6,0.1,5.2,0.3,7.8,0.2l-4.5-2.1c7,1,14.1,1.5,21.2,1.6C103.7,97.7,110.8,97.2,117.8,96.2z"/>
<path class="st5" d="M47.5,91.6c0.8,3.1,2.7,5.7,5.4,7.4c3.8,2.7,8.2,3.9,12.8,4.8c3.7,0.7,7.4,1,11.2,1.1c-0.7,0.5-1.6,0.9-2.5,1
	c-8.4,2.1-16.4,1.4-23.9-3c-3.3-1.9-5.7-4.6-6.5-8.5c-0.3-1.6-0.2-3.2,0.2-4.7c0.8-2.6,2.1-5.1,3.8-7.2c-0.1,0.9-0.5,1.6-0.4,2.3
	c0.1,0.3,0.3,0.6,0.1,0.8c-0.9,1.2-0.2,2.4-0.1,3.6C47.6,90,47.4,90.8,47.5,91.6z"/>
<path class="st5" d="M116.5,104.9c5.7,0,11.4-0.9,16.8-2.5c2.2-0.7,4.3-1.6,6.2-2.8c5.8-3.7,7.8-8.9,6-15.5
	c-0.1-0.4-0.2-0.9-0.3-1.3c2.8,3.6,4.9,7.4,3.9,12.2c-0.8,3-2.6,5.7-5.3,7.3c-3.7,2.5-8.1,4.1-12.6,4.6c-4.6,0.6-9.4,0.2-13.8-1.2
	c-0.3-0.1-0.6-0.2-0.8-0.3C116.7,105.2,116.6,105.1,116.5,104.9z"/>
<path class="st2" d="M84.3,52.5c-0.4,1.2-1.6,1.6-2.6,2c-2.9,1-6,1.2-8.9,0.4c-0.7-0.2-1.1-0.1-1.4,0.7c-1.2,3.8-4.7,6.4-8.6,6.7
	c-5.9,0.9-11.7-1.9-14.8-6.9c-0.2-0.2-0.5-0.5-0.2-0.9c3.2,3.4,7,5.2,11.7,4.6c5.2-0.5,9.1-4.8,9.2-10c0-0.6,0-1.2,0-2.2
	c1.6,2.8,4,5,7,6.2C78.4,54.3,81.7,54,84.3,52.5z"/>
<path class="st6" d="M145.5,54.5c-0.1,1.6-1.4,2.5-2.3,3.5c-3,3.1-7.1,4.7-11.4,4.5c-4.7-0.2-8.3-2.3-10-6.9
	c-0.3-0.8-0.7-0.8-1.4-0.7c-3.3,0.6-6.5,0.9-9.6-0.7c-0.7-0.4-1.7-0.7-1.9-1.7c4.3,2.8,11.2,1.5,15.6-5.4c0,1.2,0.1,2.4,0.3,3.6
	c1.4,6.8,8.3,10.3,15.2,7.7C142.1,57.6,144,56.2,145.5,54.5z"/>
<path class="st7" d="M165.2,35.8c-1.1,1.8-2.9,2.9-4.4,4.3c-2.4,2.3-5,4.5-7.4,6.8c-2.1,2-4.3,3.9-6.4,5.9c-0.2,0.2-0.5,0.3-0.7,0.4
	h-7.9c-0.1-0.1,0.1-0.2,0.2-0.3c8.6-5.8,17.3-11.6,26.3-16.9C164.9,36,165.1,35.9,165.2,35.8z"/>
<path class="st6" d="M47,53.3c-1.3-0.6-2.2-1.8-3.2-2.7c-3.5-3.1-6.9-6.4-10.4-9.5c-1.4-1.3-2.9-2.6-4.4-3.9c-0.3-0.2-0.8-0.4-0.6-1
	c4.9,2.8,9.6,5.9,14.3,9c3.7,2.4,7.4,4.9,11.1,7.4c0.4,0.2,0.8,0.4,1,0.8L47,53.3z"/>
<path class="st8" d="M47.5,91.6c-0.7-2.2-0.7-4.6,0-6.8c0.5,0,0.9,0,1.3,0.1c0.6,0.1,0.6-0.1,0.7-0.6c0-1,0.8-1.8,1.8-1.7
	c0.1,0,0.1,0,0.2,0c0.7,0,1-0.1,1-0.8c0.1-0.6,0.1-1.1,0.3-1.7c0.1,0.1,0.2,0.2,0.2,0.3c0.6,1.1,1.7,2.2,1.7,3.2s-1.2,2-1.9,3.1
	c-0.1-0.2-0.3-0.3-0.5-0.3c-0.8,0.3-1.7,0-2.2-0.7c-0.2-0.2-0.4-0.4-0.6-0.3s-0.2,0.5,0,0.8s0.4,0.7,0.8,0.7s0.8-0.2,0.9,0.3
	c0,0.3-0.3,0.5-0.5,0.7c-0.3,0.3-0.8,0.4-1.1,0.2c-0.3-0.2-0.6-0.5-0.8-0.8c-0.2-0.2-0.5-0.4-0.8-0.6c-0.2-0.1-0.5-0.3-0.6,0.1
	c-0.1,0.2,0.1,0.5,0.3,0.6c0,0,0,0,0,0c0.3,0.1,0.5,0.2,0.8,0.3c0.7,0.5,0.8,1.4,0.3,2c-0.1,0.1-0.1,0.2-0.2,0.2
	C48.1,90.6,47.5,90.9,47.5,91.6z"/>
<path class="st9" d="M96.6,45.4l8.6,11.6c0.4,0.4,0.1,0.8-0.1,1.1c-2.8,5-5.6,10-8.4,15c-0.4,0-0.5-0.3-0.6-0.6
	c-2.7-4.8-5.3-9.5-8-14.3c-0.2-0.4-0.6-0.8-0.1-1.3C90.9,53.1,93.8,49.3,96.6,45.4z"/>
<path class="st9" d="M70.9,75.2c-1.5-1.3-3.1-2.7-4.6-4c-0.5-0.3-0.6-0.9-0.4-1.4c0.8-2.7,1.5-5.4,2.3-8.2c0.2-0.5,0.2-0.8,0.9-0.4
	c2.5,1.6,5,3.2,7.4,4.8c0.3,0.1,0.4,0.4,0.5,0.7c-0.6,3.9-1.2,7.8-1.8,11.8L70.9,75.2z"/>
<path class="st10" d="M113.1,64.7c-0.2-1,0.2-1.6,1.1-2.1c2.5-1.5,4.8-3.1,7.3-4.7c0.9,3.2,1.7,6.2,2.6,9.2c0.2,0.6-0.2,0.8-0.5,1.1
	l-4,3.4c-1.6,1.3-3.1,2.6-4.8,3.9C114.2,71.9,113.6,68.3,113.1,64.7z"/>
<path class="st11" d="M90.6,58.2c-0.3-0.5,0.2-0.7,0.4-1c1.7-2.3,3.3-4.6,5-6.9c0.4-0.6,0.7-0.9,1.3-0.1c1.7,2.4,3.5,4.8,5.2,7.2
	c0.1,0.2,0.4,0.4,0.2,0.7c-1.9,1.2-3.9,2-6.1,2.4C94.5,60.1,92.4,59.3,90.6,58.2z"/>
<path class="st12" d="M90.6,58.2c2.1,0.4,4,1.5,6,2c0.3,0.2,0.4,0.5,0.4,0.9c0,2.6,0.5,5.3-0.4,7.8c-1-1.4-1.9-2.8-2.6-4.4
	C92.8,62.5,91.7,60.4,90.6,58.2z"/>
<path class="st13" d="M96.6,69v-8.7l6.1-2.1C100.7,61.8,98.8,65.5,96.6,69z"/>
<path class="st11" d="M67.8,70.6c-0.3-0.2-0.3-0.5-0.2-0.8c0.6-2,1.1-4.1,1.7-6.3c2.1,1.2,4,2.6,5.9,4c-0.8,1.4-2.1,2.5-3.7,3.2
	C70.3,70.8,69,70.8,67.8,70.6z"/>
<path class="st14" d="M67.8,70.6c1.3-0.6,2.7-0.2,4.1-0.3c0.2,0.1,0.4,0.2,0.5,0.5c0.5,1.7,1.7,3.1,1.4,5
	C71.7,74.2,69.7,72.4,67.8,70.6z"/>
<path class="st15" d="M73.9,75.8c-0.7-1.8-1.3-3.6-2-5.5l3.3-2.8C75,70.3,74.5,73,73.9,75.8z"/>
<path class="st11" d="M114.6,64.8c-0.1-0.5,0.3-0.6,0.6-0.8c1.5-1,3-1.9,4.4-2.9c0.7-0.5,1-0.3,1.1,0.5c0.4,2,1.3,3.9,1.4,6
	c-1.3,0.5-2.7,0.7-4,0.4C116.8,67.1,115.6,66,114.6,64.8z"/>
<path class="st16" d="M114.6,64.8c1.2,0.7,2.3,1.6,3.3,2.7c0.3,0.5,0.1,0.9-0.1,1.4c-0.4,1.4-1,2.7-1.8,4c-0.2,0.1-0.3,0.1-0.4-0.1
	C115.3,70.1,114.8,67.4,114.6,64.8z"/>
<path class="st17" d="M116,72.8c0.3-1.9,1.3-3.6,1.9-5.4l4.3,0.1L116,72.8z"/>
<path class="st18" d="M223.2,100.1h-10.9c-5.3,0-9.3-1.4-12.2-4.2c-2.9-2.8-4.3-6.8-4.3-12.1V52.2c0-5.3,1.4-9.3,4.3-12.1
	c2.9-2.8,6.9-4.2,12.2-4.2h10.9c5.2,0,9.2,1.4,12.1,4.2c2.9,2.8,4.4,6.8,4.4,12v4.7c0.1,1.1-0.7,2.1-1.8,2.2c-0.1,0-0.3,0-0.4,0
	h-8.4c-1.4,0-2.1-0.7-2.1-2.2v-4.1c0-2.1-0.4-3.7-1.4-4.5s-2.4-1.3-4.6-1.3h-6.8c-2.1,0-3.6,0.5-4.4,1.3s-1.4,2.4-1.4,4.5v30.5
	c0,2.1,0.4,3.7,1.4,4.6s2.4,1.3,4.4,1.3h6.8c2.1,0,3.6-0.4,4.6-1.3s1.4-2.4,1.4-4.6v-4.1c0-1.5,0.7-2.2,2.1-2.2h8.4
	c1.1-0.2,2,0.6,2.2,1.6c0,0.2,0,0.4,0,0.6v4.7c0,5.2-1.4,9.2-4.4,12C232.5,98.6,228.4,100.1,223.2,100.1z"/>
<path class="st18" d="M276.3,100.1h-11.2c-5.3,0-9.3-1.4-12.2-4.2c-2.9-2.8-4.3-6.8-4.3-12.1V52.2c0-5.3,1.4-9.3,4.3-12.1
	c2.9-2.8,6.9-4.2,12.2-4.2h11.2c5.3,0,9.3,1.4,12.2,4.2s4.3,6.8,4.3,12.1v31.7c0,5.3-1.4,9.3-4.3,12.1
	C285.6,98.8,281.6,100.2,276.3,100.1z M267.1,89.1h7.1c2.1,0,3.6-0.4,4.5-1.3s1.3-2.4,1.3-4.5V52.8c0-2.1-0.5-3.7-1.4-4.5
	s-2.4-1.3-4.5-1.3h-7.1c-2.1,0-3.6,0.5-4.5,1.3c-0.9,0.9-1.3,2.4-1.3,4.5v30.5c0,2.1,0.4,3.7,1.3,4.6S265,89.1,267.1,89.1
	L267.1,89.1z"/>
<path class="st18" d="M346.5,35.9h14.8c1-0.1,2,0.6,2.1,1.6c0,0.2,0,0.3,0,0.5v60.1c0.1,1-0.6,2-1.6,2.1c-0.2,0-0.3,0-0.5,0h-8.2
	c-1,0.1-2-0.6-2.1-1.6c0-0.2,0-0.3,0-0.5V50.7h-0.4l-10.2,33.5c-0.2,1.2-1.3,2-2.5,2h-8.4c-1.2,0-2.3-0.8-2.5-2l-10.4-33.6h-0.4
	v47.5c0.1,0.6-0.1,1.2-0.4,1.7c-0.5,0.4-1.1,0.5-1.7,0.4h-8.2c-1,0.1-2-0.6-2.1-1.6c0-0.2,0-0.3,0-0.5V38c-0.1-1,0.6-2,1.6-2.1
	c0.2,0,0.3,0,0.5,0h14.9c0.9,0,1.7,0.5,1.9,1.4l10.6,35.3h0.6l10.7-35.3C344.8,36.3,345.6,35.7,346.5,35.9z"/>
<path class="st18" d="M388.6,38v60.1c0.1,1-0.6,2-1.6,2.1c-0.2,0-0.3,0-0.5,0H378c-1,0.1-2-0.6-2.1-1.6c0-0.2,0-0.3,0-0.5V38
	c-0.1-1,0.6-2,1.6-2.1c0.2,0,0.3,0,0.5,0h8.5c1-0.1,2,0.6,2.1,1.6C388.7,37.6,388.7,37.8,388.6,38z"/>
<path class="st18" d="M427.5,100.1h-10.9c-5.3,0-9.3-1.4-12.2-4.2c-2.9-2.8-4.3-6.8-4.3-12.1V52.2c0-5.3,1.4-9.3,4.3-12.1
	c2.9-2.8,6.9-4.2,12.2-4.2h10.9c5.2,0,9.2,1.4,12.1,4.2c2.9,2.8,4.4,6.8,4.4,12v4.7c0.1,1.1-0.7,2.1-1.8,2.2c-0.1,0-0.3,0-0.4,0
	h-8.4c-1.4,0-2.1-0.7-2.1-2.2v-4.1c0-2.1-0.5-3.7-1.4-4.5s-2.4-1.3-4.5-1.3h-6.8c-2.1,0-3.5,0.5-4.5,1.3s-1.4,2.4-1.4,4.5v30.5
	c0,2.1,0.5,3.7,1.4,4.6s2.4,1.3,4.5,1.3h6.8c2.1,0,3.6-0.4,4.5-1.3s1.4-2.4,1.4-4.6v-4.1c0-1.5,0.7-2.2,2.1-2.2h8.4
	c1.1-0.2,2,0.6,2.2,1.6c0,0.2,0,0.4,0,0.6v4.7c0,5.2-1.5,9.2-4.4,12C436.8,98.6,432.7,100.1,427.5,100.1z"/>
<path class="st18" d="M480.6,100.1h-11.2c-5.3,0-9.3-1.4-12.2-4.2c-2.9-2.8-4.3-6.8-4.3-12.1V52.2c0-5.3,1.4-9.3,4.3-12.1
	c2.9-2.8,6.9-4.2,12.2-4.2h11.2c5.3,0,9.3,1.4,12.2,4.2c2.9,2.8,4.3,6.8,4.3,12.1v31.7c0,5.3-1.4,9.3-4.3,12.1
	C490,98.8,485.9,100.2,480.6,100.1z M471.4,89.1h7.1c2.1,0,3.6-0.4,4.5-1.3s1.4-2.4,1.4-4.6V52.8c0-2.1-0.5-3.7-1.4-4.5
	s-2.4-1.3-4.5-1.3h-7.1c-2.1,0-3.6,0.5-4.5,1.3c-0.9,0.9-1.3,2.4-1.3,4.5v30.5c0,2.1,0.4,3.7,1.3,4.6S469.3,89.1,471.4,89.1z"/>
<path class="st18" d="M518.5,100.1h-8.3c-1,0.2-2-0.5-2.1-1.5c0-0.2,0-0.4,0-0.6V38c-0.1-1,0.6-2,1.6-2.1c0.2,0,0.3,0,0.5,0h7.5
	c1.1-0.1,2.2,0.4,2.8,1.4l20.2,37.9h0.4V38c-0.1-1,0.6-2,1.6-2.1c0.2,0,0.3,0,0.5,0h8.3c1-0.1,2,0.6,2.1,1.6c0,0.2,0,0.3,0,0.5v60.1
	c0.1,1-0.6,2-1.6,2.1c-0.2,0-0.3,0-0.5,0h-7.3c-1.4,0.1-2.6-0.7-3.2-2L521,61h-0.4v37.1c0.1,1-0.6,2-1.6,2.1
	C518.9,100.2,518.7,100.2,518.5,100.1z"/>
</svg>
