<svg width="197" height="28" viewBox="0 0 197 28" fill="none" xmlns="http://www.w3.org/2000/svg">
<path d="M24.2557 14.2727C24.2557 17.0154 23.742 19.3645 22.7145 21.32C21.6953 23.2672 20.3033 24.7586 18.5384 25.7944C16.7817 26.8301 14.7889 27.348 12.56 27.348C10.3311 27.348 8.33416 26.8301 6.56925 25.7944C4.81262 24.7504 3.42057 23.2547 2.39311 21.3075C1.37393 19.352 0.864347 17.0071 0.864347 14.2727C0.864347 11.5301 1.37393 9.18513 2.39311 7.23793C3.42057 5.28243 4.81262 3.78681 6.56925 2.75106C8.33416 1.71532 10.3311 1.19744 12.56 1.19744C14.7889 1.19744 16.7817 1.71532 18.5384 2.75106C20.3033 3.78681 21.6953 5.28243 22.7145 7.23793C23.742 9.18513 24.2557 11.5301 24.2557 14.2727ZM19.6197 14.2727C19.6197 12.3421 19.3172 10.7139 18.7124 9.38814C18.1158 8.0541 17.2872 7.04735 16.2266 6.3679C15.166 5.68016 13.9438 5.33629 12.56 5.33629C11.1763 5.33629 9.95407 5.68016 8.89347 6.3679C7.83286 7.04735 7.00012 8.0541 6.39524 9.38814C5.79865 10.7139 5.50036 12.3421 5.50036 14.2727C5.50036 16.2034 5.79865 17.8357 6.39524 19.1697C7.00012 20.4955 7.83286 21.5022 8.89347 22.19C9.95407 22.8694 11.1763 23.2092 12.56 23.2092C13.9438 23.2092 15.166 22.8694 16.2266 22.19C17.2872 21.5022 18.1158 20.4955 18.7124 19.1697C19.3172 17.8357 19.6197 16.2034 19.6197 14.2727ZM32.9156 15.8139V27H28.4163V7.90909H32.7167V11.1531H32.9404C33.3796 10.0842 34.0798 9.23485 35.0409 8.60511C36.0104 7.97538 37.2077 7.66051 38.6329 7.66051C39.9504 7.66051 41.098 7.94223 42.0757 8.50568C43.0618 9.06913 43.8241 9.8853 44.3627 10.9542C44.9095 12.0231 45.1788 13.3198 45.1705 14.8445V27H40.6713V15.5405C40.6713 14.2644 40.3398 13.266 39.6769 12.5451C39.0223 11.8242 38.115 11.4638 36.955 11.4638C36.1678 11.4638 35.4677 11.6378 34.8545 11.9858C34.2496 12.3255 33.7732 12.8185 33.4252 13.4648C33.0854 14.1112 32.9156 14.8942 32.9156 15.8139ZM54.2437 1.54545V27H49.7444V1.54545H54.2437ZM58.8704 27V7.90909H63.3697V27H58.8704ZM61.1325 5.19957C60.4199 5.19957 59.8067 4.96342 59.293 4.49112C58.7792 4.01053 58.5224 3.43466 58.5224 2.76349C58.5224 2.08404 58.7792 1.50817 59.293 1.03586C59.8067 0.555278 60.4199 0.314985 61.1325 0.314985C61.8533 0.314985 62.4665 0.555278 62.9719 1.03586C63.4857 1.50817 63.7425 2.08404 63.7425 2.76349C63.7425 3.43466 63.4857 4.01053 62.9719 4.49112C62.4665 4.96342 61.8533 5.19957 61.1325 5.19957ZM72.4957 15.8139V27H67.9964V7.90909H72.2968V11.1531H72.5205C72.9597 10.0842 73.6598 9.23485 74.621 8.60511C75.5905 7.97538 76.7878 7.66051 78.213 7.66051C79.5305 7.66051 80.6781 7.94223 81.6558 8.50568C82.6418 9.06913 83.4041 9.8853 83.9427 10.9542C84.4896 12.0231 84.7589 13.3198 84.7506 14.8445V27H80.2513V15.5405C80.2513 14.2644 79.9199 13.266 79.257 12.5451C78.6024 11.8242 77.6951 11.4638 76.5351 11.4638C75.7479 11.4638 75.0477 11.6378 74.4346 11.9858C73.8297 12.3255 73.3532 12.8185 73.0052 13.4648C72.6655 14.1112 72.4957 14.8942 72.4957 15.8139ZM97.7762 27.3729C95.8621 27.3729 94.2091 26.9751 92.817 26.1797C91.4333 25.3759 90.3685 24.2408 89.6228 22.7741C88.877 21.2992 88.5042 19.5633 88.5042 17.5664C88.5042 15.6026 88.877 13.8791 89.6228 12.396C90.3768 10.9045 91.4291 9.74444 92.7797 8.91584C94.1304 8.07895 95.7171 7.66051 97.54 7.66051C98.7166 7.66051 99.827 7.85109 100.871 8.23224C101.923 8.60511 102.851 9.18513 103.655 9.9723C104.467 10.7595 105.105 11.7621 105.569 12.9801C106.033 14.1899 106.265 15.6316 106.265 17.3054V18.685H90.6171V15.6523H101.952C101.944 14.7906 101.758 14.0241 101.393 13.353C101.028 12.6735 100.519 12.1391 99.8643 11.7496C99.218 11.3602 98.4639 11.1655 97.6022 11.1655C96.6824 11.1655 95.8746 11.3892 95.1785 11.8366C94.4825 12.2758 93.9398 12.8558 93.5503 13.5767C93.1692 14.2893 92.9745 15.0723 92.9662 15.9258V18.5732C92.9662 19.6835 93.1692 20.6364 93.5752 21.4318C93.9812 22.219 94.5488 22.8239 95.278 23.2464C96.0071 23.6607 96.8606 23.8679 97.8383 23.8679C98.4929 23.8679 99.0854 23.7768 99.6157 23.5945C100.146 23.4039 100.606 23.1263 100.995 22.7617C101.385 22.3971 101.679 21.9455 101.878 21.407L106.079 21.8793C105.814 22.9896 105.308 23.959 104.562 24.7876C103.825 25.608 102.88 26.246 101.729 26.7017C100.577 27.1491 99.2594 27.3729 97.7762 27.3729ZM119.605 7.90909V11.3892H108.63V7.90909H119.605ZM111.339 3.33523H115.839V21.2578C115.839 21.8627 115.93 22.3267 116.112 22.6499C116.303 22.9647 116.551 23.1802 116.858 23.2962C117.164 23.4122 117.504 23.4702 117.877 23.4702C118.159 23.4702 118.416 23.4495 118.648 23.408C118.888 23.3666 119.07 23.3293 119.194 23.2962L119.953 26.8136C119.712 26.8964 119.368 26.9876 118.921 27.087C118.482 27.1864 117.943 27.2444 117.305 27.261C116.178 27.2942 115.163 27.1243 114.26 26.7514C113.357 26.3703 112.64 25.782 112.11 24.9865C111.588 24.1911 111.331 23.1967 111.339 22.0036V3.33523ZM135.535 18.9709V7.90909H140.035V27H135.672V23.6069H135.473C135.042 24.6758 134.334 25.55 133.348 26.2294C132.37 26.9089 131.165 27.2486 129.731 27.2486C128.48 27.2486 127.374 26.971 126.413 26.4158C125.46 25.8524 124.714 25.0362 124.175 23.9673C123.637 22.8902 123.367 21.5893 123.367 20.0646V7.90909H127.867V19.3686C127.867 20.5784 128.198 21.5395 128.861 22.2521C129.524 22.9647 130.394 23.321 131.471 23.321C132.134 23.321 132.776 23.1594 133.398 22.8363C134.019 22.5131 134.529 22.0326 134.926 21.3945C135.332 20.7482 135.535 19.9403 135.535 18.9709ZM154.194 7.90909V11.3892H143.22V7.90909H154.194ZM145.929 3.33523H150.428V21.2578C150.428 21.8627 150.52 22.3267 150.702 22.6499C150.892 22.9647 151.141 23.1802 151.448 23.2962C151.754 23.4122 152.094 23.4702 152.467 23.4702C152.749 23.4702 153.005 23.4495 153.237 23.408C153.478 23.3666 153.66 23.3293 153.784 23.2962L154.542 26.8136C154.302 26.8964 153.958 26.9876 153.511 27.087C153.072 27.1864 152.533 27.2444 151.895 27.261C150.768 27.2942 149.753 27.1243 148.85 26.7514C147.947 26.3703 147.23 25.782 146.7 24.9865C146.178 24.1911 145.921 23.1967 145.929 22.0036V3.33523ZM166.08 27.3729C164.215 27.3729 162.6 26.9627 161.232 26.1424C159.865 25.3221 158.805 24.1745 158.051 22.6996C157.305 21.2247 156.932 19.5012 156.932 17.5291C156.932 15.5571 157.305 13.8294 158.051 12.3462C158.805 10.863 159.865 9.71129 161.232 8.89098C162.6 8.07067 164.215 7.66051 166.08 7.66051C167.944 7.66051 169.56 8.07067 170.927 8.89098C172.294 9.71129 173.351 10.863 174.096 12.3462C174.85 13.8294 175.227 15.5571 175.227 17.5291C175.227 19.5012 174.85 21.2247 174.096 22.6996C173.351 24.1745 172.294 25.3221 170.927 26.1424C169.56 26.9627 167.944 27.3729 166.08 27.3729ZM166.104 23.7685C167.115 23.7685 167.961 23.4909 168.64 22.9357C169.319 22.3723 169.825 21.6183 170.156 20.6737C170.496 19.729 170.666 18.6767 170.666 17.5167C170.666 16.3484 170.496 15.2919 170.156 14.3473C169.825 13.3944 169.319 12.6362 168.64 12.0728C167.961 11.5094 167.115 11.2276 166.104 11.2276C165.069 11.2276 164.207 11.5094 163.519 12.0728C162.84 12.6362 162.33 13.3944 161.991 14.3473C161.659 15.2919 161.493 16.3484 161.493 17.5167C161.493 18.6767 161.659 19.729 161.991 20.6737C162.33 21.6183 162.84 22.3723 163.519 22.9357C164.207 23.4909 165.069 23.7685 166.104 23.7685ZM179.046 27V7.90909H183.409V11.0909H183.608C183.956 9.98887 184.552 9.13956 185.397 8.54297C186.251 7.93809 187.224 7.63565 188.318 7.63565C188.567 7.63565 188.844 7.64808 189.151 7.67294C189.466 7.68951 189.727 7.71851 189.934 7.75994V11.8988C189.743 11.8325 189.441 11.7745 189.027 11.7248C188.621 11.6668 188.227 11.6378 187.846 11.6378C187.026 11.6378 186.288 11.8159 185.634 12.1722C184.987 12.5202 184.478 13.005 184.105 13.6264C183.732 14.2479 183.545 14.9646 183.545 15.7766V27H179.046ZM193.507 27.2734C192.753 27.2734 192.107 27.0083 191.568 26.478C191.03 25.9477 190.765 25.3014 190.773 24.5391C190.765 23.7933 191.03 23.1553 191.568 22.625C192.107 22.0947 192.753 21.8295 193.507 21.8295C194.236 21.8295 194.87 22.0947 195.409 22.625C195.956 23.1553 196.233 23.7933 196.242 24.5391C196.233 25.0445 196.101 25.5044 195.844 25.9187C195.595 26.333 195.264 26.6644 194.85 26.913C194.444 27.1533 193.996 27.2734 193.507 27.2734Z" fill="#212121"/>
</svg>
